HIERARCHY
ROOT Bip001_Pelvis
{
  OFFSET 32.8599 95.8771 -27.9544
  CHANNELS 6 Xposition Yposition Zposition Zrotation Xrotation Yrotation
  JOINT Bip001_Spine
  {
    OFFSET 1.4188e-005 10.2191 -0.0116013
    CHANNELS 3 Zrotation Xrotation Yrotation
    JOINT Bip001_L_Thigh
    {
      OFFSET 11.0458 -10.2191 0.0116197
      CHANNELS 3 Zrotation Xrotation Yrotation
      JOINT Bip001_L_Calf
      {
        OFFSET -0.707118 -44.0221 0.360014
        CHANNELS 3 Zrotation Xrotation Yrotation
        JOINT Bip001_L_Foot
        {
          OFFSET -0.651902 -40.5938 -3.56146
          CHANNELS 3 Zrotation Xrotation Yrotation
          JOINT Bip001_L_Toe0
          {
            OFFSET 0.0530839 -10.2181 13.1504
            CHANNELS 3 Zrotation Xrotation Yrotation
            End Site
            {
              OFFSET -1.02532e-005 0 7.55606
            }
          }
        }
      }
    }
    JOINT Bip001_R_Thigh
    {
      OFFSET -11.0458 -10.2191 0.0115893
      CHANNELS 3 Zrotation Xrotation Yrotation
      JOINT Bip001_R_Calf
      {
        OFFSET 0.706994 -44.0221 0.35984
        CHANNELS 3 Zrotation Xrotation Yrotation
        JOINT Bip001_R_Foot
        {
          OFFSET 0.651787 -40.5938 -3.5613
          CHANNELS 3 Zrotation Xrotation Yrotation
          JOINT Bip001_R_Toe0
          {
            OFFSET -0.0531479 -10.2181 13.1504
            CHANNELS 3 Zrotation Xrotation Yrotation
            End Site
            {
              OFFSET -1.02894e-005 0 7.55606
            }
          }
        }
      }
    }
    JOINT Bip001_Spine1
    {
      OFFSET 1.87041e-005 14.5736 1.08638
      CHANNELS 3 Zrotation Xrotation Yrotation
      JOINT Bip001_Spine2
      {
        OFFSET 2.24614e-005 14.5058 -1.69078
        CHANNELS 3 Zrotation Xrotation Yrotation
        JOINT Bip001_Neck
        {
          OFFSET 2.20278e-005 15.3945 -0.489414
          CHANNELS 3 Zrotation Xrotation Yrotation
          JOINT Bip001_L_Clavicle
          {
            OFFSET 6.06036 -0.000579998 0.00836775
            CHANNELS 3 Zrotation Xrotation Yrotation
            JOINT Bip001_L_UpperArm
            {
              OFFSET 11.5509 -0.0600302 0.00193952
              CHANNELS 3 Zrotation Xrotation Yrotation
              JOINT Bip001_L_Forearm
              {
                OFFSET 25.9523 0.0806089 -2.15551
                CHANNELS 3 Zrotation Xrotation Yrotation
                JOINT Bip001_L_Hand
                {
                  OFFSET 32.2475 0.153767 1.63968
                  CHANNELS 3 Zrotation Xrotation Yrotation
                  JOINT Bip001_L_Finger0
                  {
                    OFFSET 6.04639 -2.20976 5.90322
                    CHANNELS 3 Zrotation Xrotation Yrotation
                    End Site
                    {
                      OFFSET 4.22375 -1.43895 0.606486
                    }
                  }
                  JOINT Bip001_L_Finger1
                  {
                    OFFSET 11.0826 -0.704819 -0.198153
                    CHANNELS 3 Zrotation Xrotation Yrotation
                    End Site
                    {
                      OFFSET 6.20027 -0.397518 -0.0787166
                    }
                  }
                }
              }
            }
          }
          JOINT Bip001_R_Clavicle
          {
            OFFSET -6.06036 -0.000563197 0.00835105
            CHANNELS 3 Zrotation Xrotation Yrotation
            JOINT Bip001_R_UpperArm
            {
              OFFSET -11.5509 -0.0599978 0.00190698
              CHANNELS 3 Zrotation Xrotation Yrotation
              JOINT Bip001_R_Forearm
              {
                OFFSET -25.9523 0.0806819 -2.1559
                CHANNELS 3 Zrotation Xrotation Yrotation
                JOINT Bip001_R_Hand
                {
                  OFFSET -32.2476 0.153857 1.63991
                  CHANNELS 3 Zrotation Xrotation Yrotation
                  JOINT Bip001_R_Finger0
                  {
                    OFFSET -6.04642 -2.20975 5.9032
                    CHANNELS 3 Zrotation Xrotation Yrotation
                    End Site
                    {
                      OFFSET -4.22376 -1.43894 0.606473
                    }
                  }
                  JOINT Bip001_R_Finger1
                  {
                    OFFSET -11.0826 -0.70479 -0.198183
                    CHANNELS 3 Zrotation Xrotation Yrotation
                    End Site
                    {
                      OFFSET -6.20028 -0.397501 -0.0787337
                    }
                  }
                }
              }
            }
          }
          JOINT Bip001_Head
          {
            OFFSET 1.09673e-005 11.2744 2.05948
            CHANNELS 3 Zrotation Xrotation Yrotation
            End Site
            {
              OFFSET 2.89576e-005 20.8808 -2.77728e-005
            }
          }
        }
      }
    }
  }
}
MOTION
Frames:	16
Frame Time:	0.04
33.4328 95.9308 -28.4177 0.59176 -0.204483 2.94379 -0.406726 2.11559 0.30965 4.7156 -2.92156 7.9553 -0.588177 6.38607 -13.1884 5.06527 -1.90644 -0.168642 -1.46695 -4.87816 2.68506 -3.42451 -2.83308 -1.74326 0.205577 10.2835 0.0469756 -5.92466 -9.21823 0.728602 2.25135 -7.61521 2.31677 -0.827199 4.22889 0.633818 -0.826649 4.22889 0.634818 1.43074 -10.3538 -4.06966 -25.8301 10.5389 1.8244 -53.8887 42.2024 1.76421 16.8713 2.88786 -22.0957 9.81775 1.80412 -4.64863 -6.36111e-015 -3.18055e-015 -1.59028e-015 -6.36111e-015 0 -1.59028e-015 23.709 18.3435 18.6569 54.1835 -10.9772 24.1714 -11.0421 10.498 107.097 -73.9613 26.9263 48.0065 1.59028e-015 0 1.59028e-015 1.59028e-015 3.18056e-015 1.59028e-015 -0.510418 -2.48482 -3.50556 
33.424 95.9297 -28.4422 0.62373 -0.13905 3.39139 -0.424949 2.09454 0.310147 4.71055 -3.04953 7.68333 -0.605401 6.34995 -13.3544 5.11106 -1.8106 -0.176112 -1.43357 -4.91247 2.64497 -3.40806 -2.79944 -1.97462 0.191838 10.267 0.0159418 -5.98749 -9.21275 0.534694 2.27879 -7.69284 2.33403 -0.862133 4.18666 0.643961 -0.862399 4.18666 0.643379 1.65836 -10.3338 -4.26576 -25.9976 10.4279 1.94292 -53.9563 42.4023 1.8098 17.0678 2.86707 -22.3402 9.65109 1.4756 -4.70611 1.76556e-031 -6.36111e-015 1.59028e-015 8.82782e-032 -3.18056e-015 1.59028e-015 22.2912 18.6726 20.6943 54.1223 -8.4205 26.6184 -10.6091 9.82107 104.44 -78.2751 26.6751 50.0685 -1.59028e-015 -3.18055e-015 -1.59028e-015 -7.95139e-016 0 -2.38542e-015 -0.682136 -2.55376 -3.61567 
33.4186 95.9318 -28.4518 0.549946 -0.160719 3.8276 -0.404698 2.10585 0.30609 4.78231 -3.19349 7.38729 -0.635841 6.46886 -13.5586 5.2386 -1.73889 -0.184192 -1.42567 -4.98017 2.67004 -3.31052 -2.6051 -1.84141 0.238575 10.0189 -0.0547822 -6.11553 -9.06167 0.0991932 2.29088 -7.72978 2.33405 -0.821366 4.20946 0.628035 -0.821097 4.20946 0.627887 1.598 -10.5151 -4.38396 -26.012 10.5102 2.24852 -54.1247 42.6136 2.03453 17.3554 2.69702 -22.7845 10.0467 1.5773 -4.55224 -0 0 1.59028e-015 2.64834e-031 -9.54167e-015 1.59028e-015 21.1648 19.0333 22.2825 53.9621 -5.35111 29.8409 -9.52858 8.39174 99.0821 -80.4108 26.6112 53.3789 7.95139e-016 3.18055e-015 2.38542e-015 -7.95139e-016 0 1.59028e-015 -0.657639 -2.48055 -3.74329 
33.3794 95.9325 -28.5351 0.559752 -0.0293721 4.31259 -0.402507 2.08811 0.276868 4.80428 -3.47854 6.74962 -0.723169 6.50346 -13.4014 5.31311 -1.56498 -0.185361 -1.41787 -5.05987 2.66902 -3.28787 -2.64604 -1.92899 0.259324 9.94039 -0.152161 -6.17621 -9.02573 -0.135573 2.2936 -7.73251 2.33253 -0.816213 4.17423 0.565879 -0.816506 4.17424 0.566734 1.44561 -10.6231 -4.4908 -25.9536 10.5405 2.51334 -54.2071 42.7901 2.19826 17.6097 2.72151 -23.0967 9.8632 1.59891 -4.71379 -3.18055e-015 1.27222e-014 -4.77083e-015 -3.18055e-015 9.54167e-015 -4.77083e-015 20.1503 19.4011 24.2235 51.8281 -0.99808 32.2131 -11.4466 6.01105 91.8456 -80.3416 25.0638 52.4351 7.95139e-016 -3.18055e-015 -1.59028e-015 7.95139e-016 0 -0 -0.51106 -2.40874 -3.90656 
33.2643 95.9403 -28.5974 0.181862 0.0852563 4.7872 -0.311903 2.0584 0.273099 5.26075 -3.99649 6.44007 -0.872069 7.07223 -13.4728 5.30388 -1.79092 -0.187155 -1.43145 -5.02056 2.66158 -2.85208 -2.45321 -1.73951 0.238249 9.34377 -0.217715 -6.31462 -8.64295 -0.641146 2.2927 -7.72349 2.31971 -0.634093 4.11528 0.554525 -0.633983 4.11528 0.55288 1.33893 -10.842 -4.65796 -26.0216 10.6433 2.86477 -54.2865 43.1541 2.39135 17.5281 2.20127 -23.2476 10.3037 1.86157 -4.47257 3.18055e-015 -3.18055e-015 -3.18055e-015 -8.82782e-032 -3.18056e-015 -1.59028e-015 19.1807 19.9622 26.4838 46.1506 5.56204 33.2731 -14.3693 -1.19227 84.0282 -78.0525 22.7514 51.0066 7.95139e-016 -6.36111e-015 -0 7.95139e-016 0 7.95139e-016 -0.445818 -2.10878 -4.09611 
33.2143 95.9465 -28.6483 0.05027 0.267954 5.13218 -0.282004 2.01328 0.306335 5.40225 -4.36139 6.52244 -0.843361 7.31846 -13.8937 4.8697 -2.03767 -0.152231 -1.53633 -4.8584 2.77474 -2.71518 -2.52032 -1.66767 0.289411 9.21 -0.296763 -6.40836 -8.48704 -0.995162 2.28627 -7.69972 2.30746 -0.575116 4.02502 0.622736 -0.575166 4.02502 0.623172 1.37328 -10.5981 -4.94041 -26.0789 10.29 3.03532 -54.4826 43.3906 2.7328 17.6956 2.20857 -23.4404 9.98595 1.81162 -4.34045 -0 0 3.18055e-015 -0 0 3.18055e-015 17.8652 19.7584 27.8727 45.5022 7.27781 34.0288 -11.5926 -8.83758 80.8566 -77.4492 18.4749 58.441 -7.95139e-016 9.54166e-015 -0 4.41391e-032 6.36111e-015 -3.97569e-016 -0.401148 -2.57182 -4.40029 
33.191 95.9595 -28.6678 0.0219433 0.457059 5.4536 -0.296213 1.96688 0.316301 5.41508 -4.56951 6.43072 -0.808594 7.26923 -14.1574 5.05226 -1.8579 -0.167661 -1.50321 -4.93342 2.73778 -2.64823 -2.54707 -1.52535 0.347103 9.03102 -0.114819 -6.55721 -8.31499 -1.61799 2.2813 -7.6803 2.30391 -0.603841 3.93207 0.64334 -0.603842 3.93207 0.643342 1.98012 -10.6247 -5.18368 -26.7307 10.1114 3.33787 -54.7116 43.4352 3.3264 18.0861 2.6653 -23.667 10.1527 1.65035 -4.34732 1.76556e-031 3.18055e-015 -3.18055e-015 3.18055e-015 6.36111e-015 -3.18055e-015 17.2656 19.4407 26.8423 50.3018 3.73843 32.8668 -13.4769 0.885652 85.5168 -75.0273 22.0427 52.6907 -7.95139e-016 0 7.95139e-016 -1.59028e-015 0 1.59028e-015 -0.904692 -2.65233 -4.37297 
33.1737 95.9635 -28.6865 0.0605202 0.496663 5.5195 -0.328724 1.93319 0.270409 5.42675 -4.57136 5.98275 -0.869306 7.20455 -13.6991 4.96086 -1.86274 -0.18345 -1.55455 -4.83046 2.7765 -2.62483 -2.61985 -1.51651 0.294342 9.16386 -0.334143 -6.51488 -8.37549 -1.43955 2.27701 -7.67587 2.30853 -0.667912 3.86478 0.552554 -0.667538 3.86479 0.552513 2.12761 -10.2966 -5.18408 -26.673 9.8898 2.9057 -55.4573 42.6319 4.42325 18.1346 2.92221 -23.902 10.3746 1.5859 -4.41185 -6.36111e-015 -6.36111e-015 1.59028e-015 -0 0 1.59028e-015 17.842 18.7586 24.7652 49.0215 7.61718 35.4062 -13.0477 -2.05294 82.042 -75.3018 23.8378 56.3108 -1.59028e-015 -6.36111e-015 -0 -1.59028e-015 -9.54167e-015 7.95139e-016 -0.981536 -2.63751 -4.3416 
33.1603 95.9536 -28.7091 0.103395 0.238148 4.97807 -0.296258 2.00531 0.256089 5.39167 -4.26467 6.5036 -0.882023 7.16052 -13.7663 5.2396 -1.69806 -0.179612 -1.46659 -5.03086 2.71795 -2.71052 -2.63925 -1.5827 0.257791 9.38226 -0.227795 -6.37692 -8.5092 -0.969643 2.26508 -7.6364 2.29974 -0.601701 4.00926 0.519686 -0.601781 4.00926 0.519747 1.10377 -10.7991 -4.75131 -25.9645 10.5841 2.94319 -55.3441 42.8417 4.29863 17.6364 2.84654 -23.2227 10.0177 1.82048 -4.36111 0 3.18055e-015 -0 -8.82782e-032 3.18056e-015 1.59028e-015 19.8375 19.4241 24.1853 47.643 7.67005 33.8438 -10.2235 -5.30087 82.5872 -77.1852 26.9474 60.5332 -4.77083e-015 -3.18055e-015 -0 -1.59028e-015 -3.18056e-015 -1.59028e-015 -0.299754 -1.76935 -4.26219 
33.1916 95.958 -28.8608 0.327816 0.310629 4.27429 -0.307224 2.05351 0.29266 5.06402 -4.19217 6.19258 -0.783704 6.85255 -12.6966 4.8969 -1.72517 -0.175077 -1.52155 -4.85715 2.73602 -3.04969 -3.22599 -1.81843 0.235552 9.96052 -0.155218 -6.14415 -8.79497 -0.222759 2.23302 -7.5449 2.27858 -0.628207 4.1054 0.599202 -0.626885 4.1054 0.598175 0.169168 -11.4066 -4.38002 -25.0746 11.3566 2.9896 -55.1111 43.4977 3.57673 17.2352 3.01531 -22.1653 9.0322 1.83453 -4.39721 2.11867e-030 -1.90833e-014 6.36111e-015 1.32417e-030 -1.59028e-014 4.77083e-015 20.9271 20.0695 24.1786 48.0065 6.98725 33.5245 -14.9519 0.0103063 82.5336 -73.4841 27.2447 50.7703 -1.59028e-015 6.36111e-015 -4.77083e-015 -1.59028e-015 1.27222e-014 -3.18055e-015 0.340108 -1.38966 -4.22641 
33.169 95.9531 -28.93 0.262016 0.18185 3.70215 -0.295035 2.11546 0.454251 5.03467 -4.15143 6.42192 -0.576442 6.98843 -12.5714 4.7262 -1.81082 -0.159467 -1.52224 -4.88559 2.76456 -3.03284 -3.36724 -1.9784 0.198949 10.1044 0.0488123 -6.03234 -8.84003 0.188263 2.19391 -7.41774 2.22757 -0.596541 4.22853 0.92018 -0.598545 4.22849 0.920171 0.354065 -11.6166 -4.45195 -25.2468 11.6329 2.68929 -54.8536 43.9086 2.95506 16.8719 3.25311 -21.0762 8.35096 2.11632 -4.17704 -3.18055e-015 -9.54166e-015 1.59028e-015 -3.18055e-015 -6.36111e-015 3.18055e-015 21.1789 20.2386 23.4437 46.3971 8.18395 34.1403 -12.1063 -5.10198 79.4734 -74.7422 26.2091 54.7845 1.59028e-015 9.54166e-015 -1.59028e-015 3.53113e-031 1.27222e-014 -1.59028e-015 0.13545 -1.47983 -4.20643 
33.1443 95.9532 -28.9779 0.317117 0.162176 3.33358 -0.301521 2.11596 0.564232 4.95276 -4.03651 6.27719 -0.535724 6.83868 -12.2125 4.84165 -1.66662 -0.170311 -1.49355 -4.98659 2.73114 -3.09869 -3.57252 -2.2195 0.136897 10.3952 0.193525 -5.91756 -8.9503 0.564471 2.17624 -7.35646 2.20362 -0.621993 4.2288 1.14089 -0.621289 4.22883 1.14065 1.06037 -11.6382 -4.6382 -25.9113 11.5633 2.63794 -55.0885 43.7618 3.01139 17.0421 3.80795 -20.8712 8.27611 2.04682 -4.07712 -2.64834e-031 9.54166e-015 1.59028e-015 -3.18055e-015 1.27222e-014 -0 21.085 20.1025 22.393 45.6372 8.6632 33.8278 -13.27 -3.99115 77.7825 -74.5886 24.8358 53.1197 -3.18055e-015 6.36111e-015 -1.59028e-015 -3.18055e-015 3.18056e-015 -1.59028e-015 -0.568243 -1.52367 -4.11426 
33.1326 95.9715 -28.9892 0.345799 0.224746 3.25936 -0.303438 2.0775 0.506243 4.90165 -3.90667 6.21613 -0.525861 6.53346 -11.9985 5.00044 -1.43494 -0.186427 -1.41089 -5.06952 2.66818 -3.13977 -3.59655 -1.97266 0.21284 10.3487 0.186193 -5.92117 -8.90836 0.472904 2.16041 -7.27523 2.17584 -0.632131 4.15217 1.02468 -0.634726 4.1522 1.02469 1.21741 -11.4692 -4.52917 -26.0704 11.3807 2.66499 -55.4954 43.0264 3.7195 17.1258 3.73696 -21.4422 8.56777 1.95049 -4.07719 -3.18055e-015 -6.36111e-015 -0 -3.18055e-015 -6.36111e-015 1.59028e-015 21.9092 19.9911 21.705 44.8228 8.32781 31.7265 -13.5187 -2.07605 77.6095 -73.6826 23.7805 49.8617 -7.95139e-015 0 -1.59028e-015 -4.77083e-015 3.18056e-015 -1.59028e-015 -0.665842 -1.51345 -3.94183 
33.0747 95.9598 -28.9464 0.259973 0.11961 3.41839 -0.300215 2.08934 0.381002 5.09714 -3.93084 6.87197 -0.527784 6.81087 -12.641 4.83392 -1.69938 -0.169136 -1.47887 -4.97224 2.68978 -2.98523 -3.40751 -2.02601 0.161993 10.238 0.205704 -5.94823 -8.89646 0.488941 2.16593 -7.33125 2.20246 -0.615579 4.17658 0.773656 -0.617911 4.17658 0.773672 1.044 -11.3805 -4.33031 -25.7832 11.3069 2.78528 -55.7082 42.7372 4.06306 17.0045 3.20678 -21.9013 8.96432 1.78861 -4.10134 -3.18055e-015 -3.18055e-015 -0 -3.18055e-015 0 -0 23.2075 19.9512 20.9144 43.3636 8.16268 28.1739 -11.8119 -2.39379 77.1372 -70.615 22.7105 50.3143 -3.18055e-015 3.18055e-015 -0 -3.18055e-015 1.27222e-014 -0 -0.390016 -1.62535 -3.84833 
33.0569 95.9478 -28.8865 0.215327 0.0061937 3.59874 -0.3031 2.10496 0.336892 5.22986 -3.94157 6.79072 -0.60307 7.06058 -12.614 4.67072 -1.95964 -0.15229 -1.50088 -4.86203 2.72301 -2.87364 -3.24314 -2.10003 0.0971017 10.2312 0.168624 -6.01343 -8.92388 0.463493 2.17724 -7.35928 2.20352 -0.621629 4.20808 0.685936 -0.619 4.20809 0.685929 1.21394 -11.3838 -4.33828 -25.9182 11.2815 2.81698 -55.7174 42.9664 3.99326 16.9276 2.85607 -21.8047 9.01885 1.72905 -4.27887 2.64834e-031 -9.54166e-015 1.59028e-015 2.64834e-031 -9.54167e-015 1.59028e-015 24.3513 19.8597 19.5068 41.9338 8.87647 23.341 -11.4139 -1.63102 76.4943 -65.4986 21.8162 47.98 0 0 -0 -0 0 3.18055e-015 -0.448762 -1.72051 -3.81605 
33.1509 95.9387 -28.7949 0.475707 -0.0420027 3.68473 -0.355372 2.11261 0.340073 4.87655 -3.69915 6.80265 -0.482839 6.75599 -12.742 4.94594 -1.73253 -0.173445 -1.41769 -4.90894 2.65725 -3.18 -3.23327 -2.47655 0.11868 10.5193 0.145303 -5.96108 -9.18046 0.690894 2.20291 -7.44197 2.23434 -0.724293 4.22167 0.696241 -0.724305 4.22169 0.696147 1.44982 -11.3336 -4.45125 -26.1992 11.2429 2.62526 -55.5773 43.1617 3.79355 16.8078 2.69652 -21.6689 9.09901 1.80149 -4.29737 -3.18055e-015 -6.36111e-015 -3.18055e-015 -3.18055e-015 -3.18056e-015 -3.18055e-015 25.1083 19.5863 18.0152 41.2337 10.5088 17.74 -11.822 -1.24538 74.2003 -60.2181 21.8649 45.8977 6.36111e-015 9.54166e-015 -6.36111e-015 9.54166e-015 9.54167e-015 -6.36111e-015 -0.746081 -1.81224 -3.81075 
